<svg aria-hidden="true" style="position: absolute; width: 0; height: 0; overflow: hidden;" version="1.1" xmlns="http://www.w3.org/2000/svg" xmlns:xlink="http://www.w3.org/1999/xlink">
<defs>
<symbol id="icon-calendar" viewBox="0 0 32 32">
<path d="M27.875 2.5h-2.875v-1.5c0-0.552-0.448-1-1-1s-1 0.448-1 1v1.5h-14v-1.5c0-0.552-0.448-1-1-1s-1 0.448-1 1v1.5h-2.875c-2.275 0-4.125 1.85-4.125 4.125v21.25c0 2.275 1.85 4.125 4.125 4.125h23.75c2.275 0 4.125-1.85 4.125-4.125v-21.25c0-2.275-1.85-4.125-4.125-4.125zM4.125 4.5h2.875v1c0 0.552 0.448 1 1 1s1-0.448 1-1v-1h14v1c0 0.552 0.448 1 1 1s1-0.448 1-1v-1h2.875c1.172 0 2.125 0.953 2.125 2.125v2.375h-28v-2.375c0-1.172 0.953-2.125 2.125-2.125zM27.875 30h-23.75c-1.172 0-2.125-0.953-2.125-2.125v-16.875h28v16.875c0 1.172-0.953 2.125-2.125 2.125z"></path>
</symbol>
<symbol id="icon-customs" viewBox="0 0 32 32">
<path d="M26.666 31.422l-1.067-12.8c-0.020-0.226-0.178-0.411-0.389-0.47l-0.004-0.001-0.674-0.184v-0.368c0-0 0-0 0-0 0-0.254-0.177-0.466-0.414-0.52l-0.004-0.001-4.382-0.972v-1.402c0.046-0.036 0.094-0.069 0.14-0.107 1.756-1.472 2.903-3.623 3.033-6.043l0.001-0.021h0.026c0.295 0 0.533-0.239 0.533-0.533v0-0.533c0-4.124-3.343-7.467-7.467-7.467s-7.467 3.343-7.467 7.467v1.067c0 0.295 0.239 0.533 0.533 0.533v0c0.025-0.002 0.047-0.006 0.069-0.011l-0.004 0.001c0.266 2.239 1.369 4.179 2.981 5.531l0.013 0.011c0.046 0.038 0.094 0.070 0.14 0.107v1.402l-4.382 0.973c-0.24 0.055-0.417 0.267-0.418 0.52v0.368l-0.674 0.184c-0.214 0.060-0.371 0.244-0.39 0.468l-0 0.002-1.067 12.8c-0.001 0.013-0.002 0.029-0.002 0.044 0 0.294 0.239 0.533 0.533 0.533h20.267c0.001 0 0.001 0 0.002 0 0.295 0 0.533-0.239 0.533-0.533 0-0.016-0.001-0.031-0.002-0.046l0 0.002zM23.466 18.027v0.432l-3.733-1.244v-0.017l3.733 0.829zM9.599 7.467c0-3.535 2.865-6.4 6.4-6.4s6.4 2.865 6.4 6.4h-1.6c-1.472-0.002-2.665-1.195-2.667-2.667 0-0 0-0 0-0 0-0.295-0.239-0.533-0.533-0.533-0.041 0-0.081 0.005-0.119 0.013l0.004-0.001-0.32 0.071c-2.867 0.646-5.397 1.743-7.651 3.227l0.086-0.053v-0.057zM10.157 8.437c1.997-1.323 4.323-2.352 6.817-2.953l0.149-0.030c0.32 1.78 1.867 3.077 3.676 3.079h1.041c-0.131 2.113-1.129 3.97-2.64 5.235l-0.012 0.009c-1.848 1.541-4.532 1.541-6.38 0-1.544-1.296-2.548-3.192-2.652-5.324l-0.001-0.017zM15.999 19.137l-2.667-1.333v-2.427c0.778 0.392 1.695 0.623 2.666 0.624h0c0.972-0.001 1.889-0.232 2.701-0.64l-0.035 0.016v2.428l-2.667 1.333zM18.666 18.996v1.063l-1.276-0.427 1.276-0.637zM17.023 26.545l-1.025 1.366-1.025-1.366 1.025-4.439 1.025 4.439zM14.609 19.636l-1.276 0.427v-1.067l1.276 0.64zM8.532 18.027l3.733-0.829-3.733 1.261v-0.432zM7.134 22.66c0.53 0.419 0.866 1.061 0.866 1.782 0 0.032-0.001 0.064-0.002 0.096l0-0.005c0.003 0.045 0.005 0.097 0.005 0.15 0 0.834-0.483 1.555-1.184 1.899l-0.012 0.006 0.327-3.927zM22.399 30.933v-8h-1.067v8h-10.667v-8h-1.067v8h-3.154l0.267-3.225c1.324-0.189 2.354-1.539 2.354-3.175 0.002-0.039 0.003-0.085 0.003-0.131 0-1.271-0.743-2.368-1.819-2.881l-0.019-0.008 0.202-2.43 0.033-0.009v0.126c0 0.295 0.239 0.533 0.533 0.533v0c0.057 0 0.114-0.009 0.169-0.028l4.098-1.366v2.46c0 0.294 0.239 0.533 0.533 0.533 0.060 0 0.118-0.010 0.172-0.028l-0.004 0.001 2.298-0.766-1.387 6.007c-0.009 0.036-0.014 0.077-0.014 0.12 0 0.121 0.040 0.232 0.108 0.322l-0.001-0.001 1.6 2.133c0.098 0.13 0.253 0.213 0.427 0.213s0.328-0.083 0.426-0.212l0.001-0.001 1.6-2.133c0.067-0.088 0.107-0.2 0.107-0.32 0-0.042-0.005-0.084-0.014-0.123l0.001 0.004-1.387-6.007 2.298 0.766c0.050 0.018 0.108 0.028 0.168 0.028 0 0 0 0 0 0v0c0.295 0 0.533-0.239 0.533-0.533v0-2.46l4.098 1.366c0.050 0.018 0.108 0.028 0.168 0.028 0 0 0 0 0 0v0c0.295 0 0.533-0.239 0.533-0.533v0-0.126l0.033 0.009 0.987 11.851h-3.154z"></path>
</symbol>
<symbol id="icon-finish" viewBox="0 0 32 32">
<path d="M27.613 1.548h-21.161v-1.032c0-0.285-0.231-0.516-0.516-0.516v0h-1.548c-0.285 0-0.516 0.231-0.516 0.516v0 30.968c0 0.285 0.231 0.516 0.516 0.516v0h1.548c0.285 0 0.516-0.231 0.516-0.516v0-12.387h21.161c0.285 0 0.516-0.231 0.516-0.516v0-16.516c0-0.285-0.231-0.516-0.516-0.516v0zM5.419 30.968h-0.516v-29.935h0.516v29.935zM27.097 7.742h-5.161v5.161h5.161v5.161h-5.161v-5.161h-5.161v5.161h-5.161v-5.161h-5.161v-5.161h5.161v-5.161h5.161v5.161h5.161v-5.161h5.161v5.161z"></path>
<path d="M11.613 7.742h5.161v5.161h-5.161z"></path>
</symbol>
<symbol id="icon-location" viewBox="0 0 32 32">
<path d="M16 32c-0.169-0-0.324-0.063-0.442-0.167l0.001 0.001c-0.472-0.417-11.559-10.308-11.559-19.833 0-6.617 5.384-12 12-12s12 5.383 12 12c0 9.525-11.087 19.416-11.559 19.833-0.117 0.103-0.272 0.166-0.441 0.167h-0zM16 1.333c-5.881 0-10.667 4.785-10.667 10.667 0 7.891 8.601 16.477 10.667 18.425 2.065-1.948 10.667-10.535 10.667-18.425 0-5.881-4.785-10.667-10.667-10.667z"></path>
<path d="M16 18.667c-3.676 0-6.667-2.991-6.667-6.667s2.991-6.667 6.667-6.667 6.667 2.991 6.667 6.667-2.991 6.667-6.667 6.667zM16 6.667c-2.941 0-5.333 2.392-5.333 5.333s2.392 5.333 5.333 5.333 5.333-2.392 5.333-5.333-2.392-5.333-5.333-5.333z"></path>
</symbol>
<symbol id="icon-truck" viewBox="0 0 32 32">
<path d="M31.897 15.433l-4.645-6.194c-0.095-0.126-0.245-0.206-0.413-0.206h-4.645v-5.161c0-0.285-0.231-0.516-0.516-0.516v0h-21.161c-0.285 0-0.516 0.231-0.516 0.516v0 21.161c0 0.285 0.231 0.516 0.516 0.516v0h1.074c0.283 1.973 2.112 3.342 4.085 3.059 1.585-0.228 2.831-1.473 3.059-3.059h14.534c0.283 1.973 2.112 3.342 4.085 3.059 1.585-0.228 2.831-1.473 3.059-3.059h1.074c0.285 0 0.516-0.231 0.516-0.516v0-9.29c0-0 0-0 0-0 0-0.117-0.039-0.224-0.104-0.311l0.001 0.001zM1.032 4.388h20.129v17.548h-13.935c-0.058 0.002-0.113 0.014-0.163 0.034l0.003-0.001c-0.54-0.344-1.198-0.549-1.905-0.549s-1.364 0.204-1.919 0.557l0.015-0.009c-0.047-0.019-0.102-0.030-0.159-0.032l-0.001-0h-2.065v-17.548zM1.59 24.517h-0.557v-1.548h1.169c-0.309 0.437-0.526 0.961-0.609 1.529l-0.002 0.019zM5.161 27.613c-1.425 0-2.581-1.155-2.581-2.581s1.155-2.581 2.581-2.581 2.581 1.155 2.581 2.581c-0.002 1.425-1.156 2.579-2.581 2.581zM23.267 24.517h-14.534c-0.086-0.587-0.302-1.111-0.619-1.56l0.008 0.011h15.756c-0.309 0.437-0.526 0.961-0.609 1.529l-0.002 0.019zM26.839 27.613c-1.425 0-2.581-1.155-2.581-2.581s1.155-2.581 2.581-2.581 2.581 1.155 2.581 2.581c-0.002 1.425-1.156 2.579-2.581 2.581zM30.968 24.517h-0.557c-0.086-0.587-0.302-1.111-0.619-1.56l0.008 0.011h1.169v1.548zM30.968 21.936h-2.065c-0.058 0.002-0.113 0.014-0.163 0.034l0.003-0.001c-0.54-0.344-1.198-0.549-1.905-0.549s-1.364 0.204-1.919 0.557l0.015-0.009c-0.047-0.019-0.102-0.030-0.159-0.032l-0.001-0h-2.581v-11.871h1.032v7.226c0 0.285 0.231 0.516 0.516 0.516v0h7.226v4.129zM30.968 16.775h-6.71v-6.71h2.323l4.387 5.849v0.86z"></path>
<path d="M5.161 23.484c-0.855 0-1.548 0.693-1.548 1.548s0.693 1.548 1.548 1.548 1.548-0.693 1.548-1.548-0.693-1.548-1.548-1.548zM5.161 25.549c-0.285 0-0.516-0.231-0.516-0.516s0.231-0.516 0.516-0.516v0c0.285 0 0.516 0.231 0.516 0.516s-0.231 0.516-0.516 0.516v0zM26.839 23.484c-0.855 0-1.548 0.693-1.548 1.548s0.693 1.548 1.548 1.548 1.548-0.693 1.548-1.548-0.693-1.548-1.548-1.548zM26.839 25.549c-0.285 0-0.516-0.231-0.516-0.516s0.231-0.516 0.516-0.516v0c0.285 0 0.516 0.231 0.516 0.516s-0.231 0.516-0.516 0.516v0zM23.226 19.355c0 0.285 0.231 0.516 0.516 0.516v0h2.065c0.285 0 0.516-0.231 0.516-0.516s-0.231-0.516-0.516-0.516v0h-2.065c-0.285 0-0.516 0.231-0.516 0.516v0zM8.258 5.936c0-0.285-0.231-0.516-0.516-0.516v0h-5.161c-0.285 0-0.516 0.231-0.516 0.516s0.231 0.516 0.516 0.516v0h5.161c0.285 0 0.516-0.231 0.516-0.516v0zM7.742 7.484h-3.613c-0.285 0-0.516 0.231-0.516 0.516s0.231 0.516 0.516 0.516h3.613c0.285 0 0.516-0.231 0.516-0.516s-0.231-0.516-0.516-0.516v0zM7.742 9.549h-1.032c-0.285 0-0.516 0.231-0.516 0.516s0.231 0.516 0.516 0.516v0h1.032c0.285 0 0.516-0.231 0.516-0.516s-0.231-0.516-0.516-0.516v0z"></path>
</symbol>
</defs>
</svg>
